<?xml version="1.0" encoding="UTF-8"?>
<svg id="b" xmlns="http://www.w3.org/2000/svg" version="1.1" viewBox="0 0 193.4 43.5">
  <!-- Generator: Adobe Illustrator 29.1.0, SVG Export Plug-In . SVG Version: 2.1.0 Build 142)  -->
  <defs>
    <style>
      .st0 {
        fill: #fff;
      }
    </style>
  </defs>
  <g>
    <path class="st0" d="M13.2,17.3c-.1-1.3-.5-2.4-1.2-3.5-1.6-2.3-4.4-3.2-5.7-3.4l3.1-5.3c.4.2,1.1.9,1.9,2.4,1.9,3.6,2.3,7.1,1.9,9.8Z"/>
    <path class="st0" d="M12,20.8l-5.6-9.7c1.2.2,3.5,1.1,4.9,3.1,1.2,1.7,1.4,4,.6,6.6Z"/>
    <path class="st0" d="M30.6,32.4c-2.7-.5-4.5-1.5-5.4-3.1-1.4-2.2-.6-5.1-.1-6.5l5.5,9.6Z"/>
    <path class="st0" d="M30.6,33.2l-2.6,4.5c-.2-.2-.5-.4-.8-.7-1.6-1.3-4.8-3.8-3.6-10.2,0,1,.3,2,.9,2.9,1.1,1.7,3.1,2.9,6.1,3.4Z"/>
    <path class="st0" d="M27.3,38.7h0l-2.6,4.5c-2.8-4.2-3.8-8.5-3.1-12.8.2-1.5.7-2.9,1.3-4.4-1.6,7.3,2,10.1,3.8,11.6.3.3.8.6.8.8l-.3.4Z"/>
    <path class="st0" d="M24.2,43.5h-5.3c0-.1,0-.3-.2-.5-.7-2-2.3-7.1,3.3-16.4-.5,1.2-.8,2.4-1,3.7-.8,4.5.3,9,3.2,13.3Z"/>
    <path class="st0" d="M18,43.3c0,0,0,.1,0,.2h-5.8c-.9-4.5,3.6-10,7.5-14.6-4,7.9-2.5,12.5-1.9,14.3h0Z"/>
    <path class="st0" d="M23.3,23.2c-.5.7-1,1.5-1.5,2.2-.6.8-1.3,1.6-1.9,2.3-3.7,4.4-8.3,9.7-8.4,14.4l-2.8-4.8h0c0-4.8,5.3-8.1,10.1-11,1.7-1,3.3-2,4.6-3Z"/>
    <path class="st0" d="M27.9,15.7l-2.7,4.6c-1.3,1.8-4,3.5-6.9,5.3-4.5,2.8-9.7,6-10.3,10.5l-1.9-3.3c2.4-4.6,7.7-7.8,12.9-10.9,3.3-2,6.5-4,8.9-6.2Z"/>
    <path class="st0" d="M30.7,10.5c-1.7,4.4-6.7,7.5-12.1,10.7-3.4,2.1-7,4.2-9.7,6.8,3-4.1,6.8-7.4,10.2-10.3,4-3.5,7.9-6.8,9.6-10.7l2,3.5Z"/>
    <path class="st0" d="M28.3,6.3c-1.5,4-5.4,7.4-9.6,10.9-2.5,2.2-5.3,4.5-7.8,7.3l1.3-2.3s0,0,0,0c0-.1.2-.3.3-.4,2.4-3.6,4.6-6.2,6.6-8.6,3.7-4.5,6.1-7.3,6.2-12.1l3,5.2Z"/>
    <path class="st0" d="M18.6,12.7c-.7.9-1.5,1.8-2.3,2.8C19.6,8.7,20,2.1,19.3,0h5.2c.3,5.2-2.1,8-6,12.7Z"/>
    <path class="st0" d="M15.4,15.4c1.9-7.2-1.1-12.6-2.5-15,0-.1-.2-.3-.2-.4h5.8c.8,1.6.4,8.4-3.1,15.4Z"/>
    <path class="st0" d="M13.9,17.6c.2-1.1.2-2.3,0-3.6-.2-2.4-1-4.9-2.1-7-.7-1.3-1.5-2.3-2.2-2.6L12.1.4c0,0,.1.2.2.3,1.4,2.5,5,8.8,1.7,16.9Z"/>
  </g>
  <g>
    <path class="st0" d="M39.1,13.7h5.2v7.2l12.4-7.8,2.7,4-7.1,4.3,7.3,5.3-3,3.8-8.7-6.4-3.6,2.2v3.7h-5.2V13.7Z"/>
    <path class="st0" d="M71.9,25.5c-.7,0-1.4,0-2.1,0-1.3,0-2.5,0-3.7-.1v4.6h-5.2V13.5c2.5-.2,5.4-.3,8.5-.3,9,0,11.8,2.9,11.8,6s-1.3,3.9-4,5.1l3.6,3.7-3.9,3-5-5.5ZM75.8,19.5c0-.9-1.5-1.8-6.3-1.8s-2.4,0-3.4,0v3.5c1,0,2.1,0,3.4,0,4.8,0,6.3-.9,6.3-1.8Z"/>
    <path class="st0" d="M100.2,30.1h-17.9V13.7h17.9v4.4h-12.7v1.9h10.1v3.9h-10.1v1.9h12.7v4.4Z"/>
    <path class="st0" d="M118,27.8h-11.7l-2.4,3.2-3.9-2.9,12.1-15.6,12.1,15.6-3.9,2.9-2.4-3.2ZM112.1,20l-2.7,3.6h5.4l-2.7-3.6Z"/>
    <path class="st0" d="M120.3,13.7h20.6v4.4h-7.6v12h-5.4v-12h-7.6v-4.4Z"/>
    <path class="st0" d="M141.9,13.7h5.2v16.3h-5.2V13.7Z"/>
    <path class="st0" d="M149.3,13.7h5.2v7.2l12.4-7.8,2.7,4-7.1,4.3,7.3,5.3-3,3.8-8.7-6.4-3.6,2.2v3.7h-5.2V13.7Z"/>
    <path class="st0" d="M186.9,27.8h-11.7l-2.4,3.2-3.9-2.9,12.1-15.6,12.1,15.6-3.9,2.9-2.4-3.2ZM181.1,20l-2.7,3.6h5.4l-2.7-3.6Z"/>
  </g>
</svg>