<?xml version="1.0" encoding="UTF-8"?>
<svg id="Ebene_1" xmlns="http://www.w3.org/2000/svg" version="1.1" viewBox="0 0 1024 1024">
  <!-- Generator: Adobe Illustrator 29.1.0, SVG Export Plug-In . SVG Version: 2.1.0 Build 142)  -->
  <path d="M398.2,415.1c-2.2-27.8-10.9-52.7-26.2-74.7-35.4-50.6-94.7-69.2-122.3-73.5l66.5-115.2c9.7,4.9,24.5,20.2,41,50.9,41.8,77.9,49.7,153.7,41.1,212.5Z"/>
  <path d="M372.6,492.2l-120.5-208.7c26,5.1,76.4,22.8,106.7,66.1,26.2,37.5,30.9,85.5,13.8,142.7Z"/>
  <path d="M774.4,742c-57.6-11.1-97.1-33.3-117.4-66.2-29.7-48.3-12.2-109.1-2.2-141.1l119.6,207.2Z"/>
  <path d="M775.3,758.4l-55.7,96.5c-4.2-4.5-10-9.1-16.6-14.4-35.3-28.4-102.8-82.6-78.4-219.7,1.1,21.2,6.2,43.2,18.7,63.4,23.2,37.6,67.6,62.5,131.9,74.2Z"/>
  <path d="M704.4,878.5h1.6l-55.7,96.5c-60.1-89.9-82.6-183.2-67-277.3,5.3-32,14.7-63.3,28.5-94.5-34.1,157.1,42.5,218.7,81.2,249.8,6.8,5.5,16.9,13.6,18,16.8l-6.6,8.7Z"/>
  <path d="M635.8,982h-114.3c-.8-3-2-6.6-3.4-10.9-14-42.8-50.7-154.4,71.2-355-10.2,26.2-17.5,52.6-21.8,79-16.2,97.6,6.8,194.1,68.3,287Z"/>
  <path d="M503.5,977.8c.4,1.4.9,2.8,1.4,4.2h-124.5c-18.4-97,78.3-216.4,162.9-315.7-85.8,171-53.2,270.4-40.3,309.8l.6,1.7Z"/>
  <path d="M618.1,543.7c-11.4,15.9-21.9,31.5-31.6,46.7-13.5,16.3-28.6,34.1-42,49.8-80.4,94.1-179,209.7-182.3,312l-60.4-104.6v-2.8c0-101.5,115.4-172.7,217.2-235.6,35.9-22.2,70.4-43.5,99.1-65.4Z"/>
  <path d="M717.3,380.8l-57.8,100.2c-27.2,39.3-86.2,75.8-148.9,114.5-98.1,60.6-208.5,128.8-223,227.3l-41.2-71.3c52.4-98.3,167.1-168.3,278.1-236,72.2-44,141-86,192.9-134.6Z"/>
  <path d="M777.7,269.7c-35.8,94.4-145.4,161.2-261.5,232.1-74.1,45.2-150.2,91.6-209,147.2,64.1-88.2,147.1-159.6,221-223.3,87.4-75.1,170-146.2,206.4-230.8l43.2,74.8Z"/>
  <path d="M724.3,177.3c-31.9,86.1-116.8,159.1-206.8,236.5-54.1,46.5-113.9,97.9-167.6,157.3l29-50.3c.3-.5.5-1,.6-1.3,1.9-2.8,3.7-5.5,5.4-8.2,52.5-77.3,99.9-134.4,141.8-184.7,80.8-97.2,131.6-158.4,132.9-261.1l64.5,111.8Z"/>
  <path d="M514.5,316.3c-15.6,18.8-32.4,39-50.2,61.2,72.4-146.7,80.7-289.2,66.1-335.5h112.8c6.5,111.6-44.7,173.2-128.7,274.3Z"/>
  <path d="M446.9,375.7c41.9-155.2-24.5-271.8-54.9-325-1.7-2.9-3.4-5.9-4.9-8.6h126.3c16.4,33.7,9.1,182.5-66.5,333.7Z"/>
  <path d="M413.9,422.7c3.8-24.1,4.5-50,1.9-77.3-4.8-51.6-21-106.4-44.6-150.4-15.6-29.2-32.1-49.1-47.1-57.2l49.9-86.5c1.2,2.1,2.5,4.5,4.1,7.2,30.4,53.5,107.8,189.2,35.7,364.2Z"/>
</svg>